<?xml version="1.0" encoding="utf-8"?>
<svg version="1.1" id="Layer_1" xmlns="http://www.w3.org/2000/svg" xmlns:xlink="http://www.w3.org/1999/xlink" x="0px" y="0px"
	 viewBox="0 0 100 100" style="enable-background:new 0 0 100 100;" xml:space="preserve">
<style type="text/css">
	.st0{fill:#51A79A;}
</style>
<g>
	<!-- Sea surface wave -->
	<path class="st0" d="M100,78.95c-4.54,2.11-6.27,6.47-13.42,6.47c-9.42,0-9.42-7.58-18.84-7.58c-9.42,0-9.42,7.58-18.84,7.58
		s-9.42-7.58-18.84-7.58c-9.42,0-9.42,7.58-18.84,7.58c-5.87,0-8.09-2.94-11.21-5.16V100h100V78.95z"/>
	<!-- Seabirds -->
	<g transform="matrix(1.12 0 0 1.12 -3 16)">
		<path class="st0" d="M6.12,9.2c0,0,6.77-5.19,14.66-4.74c6.09,0.35,9.47,2.03,9.47,2.03h3.83c0,0,8.12-4.06,10.83-3.83
			c2.71,0.23,12.41,4.53,12.41,4.53s-8.86-1.48-11.96-1.61C43.78,5.52,36.68,7.2,36,8.33c-0.68,1.13-1.49,3.4-3.76,3.4
			c-2.06,0-2.43-2.99-3.33-3.44c-0.9-0.45-6.99-0.86-8.57-1.11C18.76,6.94,6.12,9.2,6.12,9.2z"/>
		<path class="st0" d="M43,21.88c0,0,7.47-4.12,15.21-2.5c5.97,1.25,9.07,3.42,9.07,3.42l3.79,0.57c0,0,8.64-2.8,11.28-2.17
			c2.64,0.63,11.6,6.33,11.6,6.33s-8.54-2.78-11.59-3.37c-1.57-0.3-8.85,0.31-9.68,1.32s-1.98,3.14-4.22,2.8
			c-2.03-0.31-1.96-3.32-2.78-3.9c-0.82-0.58-6.79-1.89-8.31-2.37C55.83,21.54,43,21.88,43,21.88z"/>
	</g>
</g>
</svg>
